# xmcd
#
# Track frame offsets:
#  150
#  12695
#  14901
#  28378
#  30816
#  49553
#  51778
#  65008
#  67608
#  88761
#  91295
#  107876
#  109061
#  124342
#  125479
#  145157
#  147491
#  169234
#  172653
#  192528
#  193990
#  201672
#  204874
#  215734
#  218403
#  230571
#  232991
#  252794
#  282068
#  301428
#  316765
#
# Disc length: 4433 seconds
#
# Revision: 0
# Processed by: cddbd v1.5.1PL0 Copyright (c) Steve Scherf et al.
# Submitted via: Collectorz.com_Music_Collector 6.9
#
DISCID=ce114f1f
DTITLE=Al Cook - The Birmingham Jam
DYEAR=2004
DGENRE=Blues
TTITLE0=The Birmingham Jam
TTITLE1=Comment A
TTITLE2=Movin' Back To Alabama
TTITLE3=Comment B
TTITLE4=Carolina Blues
TTITLE5=Comment C
TTITLE6=If You Can Dish It
TTITLE7=Comment D
TTITLE8=Young And Wild Blues
TTITLE9=Comment E
TTITLE10='Tain't What You Say Is What You Do
TTITLE11=Comment F
TTITLE12=They Got Wake Me In The Mornin'
TTITLE13=Comment G
TTITLE14=Moanin' The Blues
TTITLE15=Comment H
TTITLE16=Avachi Stomp
TTITLE17=Comment I
TTITLE18=The Low Down Blues
TTITLE19=Comment J
TTITLE20=Cotton Gin Blues
TTITLE21=Comment K
TTITLE22=Blind Lemon's Tap Dance
TTITLE23=Comment L
TTITLE24=John The Revalator
TTITLE25=Comment M
TTITLE26=Frisco Train
TTITLE27=Hot Ivories
TTITLE28=Belle Of St. Louis
TTITLE29=Early Mornin' Blues
TTITLE30=Four O'Clock Blues
EXTD=
EXTT0=
EXTT1=
EXTT2=
EXTT3=
EXTT4=
EXTT5=
EXTT6=
EXTT7=
EXTT8=
EXTT9=
EXTT10=
EXTT11=
EXTT12=
EXTT13=
EXTT14=
EXTT15=
EXTT16=
EXTT17=
EXTT18=
EXTT19=
EXTT20=
EXTT21=
EXTT22=
EXTT23=
EXTT24=
EXTT25=
EXTT26=
EXTT27=
EXTT28=
EXTT29=
EXTT30=
PLAYORDER=
